<svg preserveAspectRatio="none" overflow="visible" style="display: block;" width="111.58" height="64.09" viewBox="0 0 111.58 64.09" fill="none" xmlns="http://www.w3.org/2000/svg">
<path id="Vector" d="M75.2 40.6C75.2 42.97 73.22 44.89 70.85 44.89H60.17L61.65 42.07H70.85C71.64 42.07 72.38 41.4 72.38 40.6C72.38 39.8 71.73 39.25 70.94 39.25H64.33C61.96 39.25 59.98 37.41 59.98 35.07C59.98 32.73 61.96 30.78 64.33 30.78H75.01L73.53 33.6H64.33C63.54 33.6 62.8 34.27 62.8 35.07C62.8 35.87 63.45 36.43 64.24 36.43H70.85C73.22 36.43 75.2 38.27 75.2 40.61V40.6ZM88.58 36.43H81.97C81.18 36.43 80.53 35.86 80.53 35.07C80.53 34.28 81.26 33.6 82.06 33.6H91.26L92.74 30.78H82.06C79.69 30.78 77.71 32.7 77.71 35.07C77.71 37.44 79.69 39.25 82.06 39.25H88.67C89.46 39.25 90.11 39.82 90.11 40.6C90.11 41.38 89.38 42.07 88.58 42.07H79.38L77.9 44.89H88.58C90.95 44.89 92.93 42.97 92.93 40.6C92.93 38.23 90.95 36.42 88.58 36.42V36.43ZM110.07 30.79H96.7V45.27H99.52V39.26H107.1L108.45 36.44H99.53V33.62H111.58L110.08 30.8L110.07 30.79ZM56.95 38.13V30.78H54.13V37.93C54.13 40.82 52.64 42.63 49.86 42.63C47.08 42.63 45.62 40.8 45.62 37.9V30.78H42.8V38.1C42.8 42.5 45.4 45.41 49.89 45.41C54.38 45.41 56.95 42.48 56.95 38.13ZM25.47 41.27L22.28 42.19L21.37 45.38L20.45 42.19L17.26 41.27L20.45 40.36L21.37 37.18L22.28 40.36L25.47 41.28V41.27ZM8.53 53.57L15.43 45.17L19.9 15.63L6.37997 56.27L20 48.1L16.87 46.24L8.53 53.58V53.57ZM22.85 15.63L27.32 45.17L34.22 53.57L25.88 46.23L22.75 48.1L36.38 56.27L22.85 15.62V15.63ZM42.76 64.08L21.38 51.29L0 64.09L21.38 0L42.76 64.08ZM21.37 49.69L40.29 61.01L21.38 4.31L2.44998 61.01L21.37 49.69Z" fill="white"/>
</svg>
